<?xml version="1.0" encoding="UTF-8" standalone="no"?><!DOCTYPE svg PUBLIC "-//W3C//DTD SVG 1.1//EN" "http://www.w3.org/Graphics/SVG/1.1/DTD/svg11.dtd"><svg width="100%" height="100%" viewBox="0 0 512 512" version="1.1" xmlns="http://www.w3.org/2000/svg" xmlns:xlink="http://www.w3.org/1999/xlink" xml:space="preserve" xmlns:serif="http://www.serif.com/" style="fill-rule:evenodd;clip-rule:evenodd;stroke-linejoin:round;stroke-miterlimit:2;"><path d="M476.16,126.464c1.297,0.749 2.099,2.137 2.099,3.634l-0,251.804c-0,1.497 -0.802,2.885 -2.099,3.634l-218.062,125.902c-1.296,0.749 -2.9,0.749 -4.196,0l-218.062,-125.902c-1.297,-0.749 -2.099,-2.137 -2.099,-3.634l0,-251.804c0,-1.497 0.802,-2.885 2.099,-3.634l218.062,-125.902c1.296,-0.749 2.9,-0.749 4.196,-0l218.062,125.902Zm-78.685,211.114l-0.087,-162.959l-141.432,-81.382l-141.433,81.382l0.204,1.174l-0,161.68l141.273,81.29l140.017,-80.567l1.458,-0.618Z" style="fill:#fff;"/><path d="M361.195,316.991l-104.537,60.152l-105.625,-60.779l0,-120.075l105.071,-60.458l105.091,60.469l0,120.691Z" style="fill:#fff;"/><path d="M247.607,423.869l-60.098,34.699l0,-69.397l60.098,34.698Zm-205.472,-118.633l60.097,34.699l-60.097,34.698l-0,-69.397Zm64.294,111.364l-60.098,-34.698l60.098,-34.699l-0,69.397Zm85.269,49.236l60.105,-34.698l0,69.397l-60.105,-34.699Zm-85.269,-301.039l-60.098,-34.699l60.098,-34.698l-0,69.397Zm12.59,259.072l60.097,-34.698l-0,69.397l-60.097,-34.699Zm68.499,-370.437l60.089,34.699l-60.098,34.698l0.009,-69.397Zm-81.089,279.234l-60.098,-34.699l60.098,-34.698l-0,69.397Zm-0,-83.935l-60.098,-34.698l60.098,-34.699l-0,69.397Zm-64.294,-111.364l60.097,34.698l-60.097,34.699l-0,-69.397Zm-0,83.934l60.097,34.699l-60.097,34.699l-0,-69.398Zm209.668,-140.439l-60.105,-34.698l60.105,-34.699l0,69.397Zm-72.687,41.967l-60.097,-34.698l60.097,-34.699l-0,69.397Zm-4.197,259.073l-60.097,34.698l0,-69.397l60.097,34.699Zm0.009,-251.804l-60.106,34.699l0,-69.397l60.106,34.698Z" style="fill:#006661;"/><path d="M261.743,265.947l82.255,47.486l-82.255,47.485l0,-94.971Zm5.743,-9.947l82.245,-47.485l-0,94.97l-82.245,-47.485Zm-5.743,-104.918l82.255,47.485l-82.255,47.486l0,-94.971Z"/><path d="M250.257,246.053l-82.255,-47.486l82.255,-47.485l-0,94.971Zm-0,114.865l-82.255,-47.485l82.255,-47.486l-0,94.971Zm-5.743,-104.918l-82.245,47.485l0,-94.97l82.245,47.485Z"/><path d="M260.197,431.138l60.105,34.698l-60.105,34.699l-0,-69.397Zm209.668,-56.505l-60.097,-34.698l60.097,-34.699l0,69.397Zm0,-167.869l-60.097,-34.699l60.097,-34.698l0,69.397Zm0,83.935l-60.097,-34.699l60.097,-34.699l0,69.398Zm-64.294,125.901l0,-69.397l60.098,34.699l-60.098,34.698Zm-72.687,-27.429l60.097,34.698l-60.097,34.699l0,-69.397Zm60.106,-301.04l-60.098,34.698l0,-69.397l60.098,34.699Zm12.581,91.212l60.098,34.69l-60.098,34.698l0,-69.388Zm-68.49,-49.245l60.105,-34.698l0,69.397l-60.105,-34.699Zm68.49,133.179l60.098,34.69l-60.098,34.699l0,-69.389Zm-81.089,195.291l-60.089,-34.699l60.106,-34.698l-0.017,69.397Zm81.089,-363.16l60.098,34.69l-60.098,34.699l0,-69.389Zm-85.269,-49.244l-60.105,34.698l-0,-69.397l60.105,34.699Zm-55.909,41.967l60.098,-34.699l-0,69.397l-60.098,-34.698Zm72.679,293.771l60.106,-34.699l-0,69.397l-60.106,-34.698Z" style="fill:#009991;"/></svg>